<?xml version="1.0" encoding="utf-8"?>
<!-- Generator: Adobe Illustrator 26.5.0, SVG Export Plug-In . SVG Version: 6.00 Build 0)  -->
<svg version="1.1" id="Layer_1" xmlns="http://www.w3.org/2000/svg" xmlns:xlink="http://www.w3.org/1999/xlink" x="0px" y="0px"
	 viewBox="0 0 495.9 160.6" style="enable-background:new 0 0 495.9 160.6;" xml:space="preserve">
<style type="text/css">
	.st0{display:none;opacity:0.16;fill:#251F1E;}
	.st1{display:none;fill:#251F1E;}
	.st2{fill:#C31F48;}
	.st3{fill:#252738;}
	.st4{fill-rule:evenodd;clip-rule:evenodd;fill:#C81F48;}
</style>
<path class="st0" d="M475.5,134.7h4.3v16.6h-4.2v-2.6c-0.8,1.1-1.7,1.9-2.9,2.4c-0.8,0.3-1.6,0.5-2.4,0.5c-1.9,0-3.4-0.5-4.4-1.6
	c-1-1-1.5-2.6-1.5-4.6v-10.7h4.3v10c0,0.8,0.1,1.5,0.4,2c0.4,0.9,1.2,1.3,2.5,1.3c1.1,0,2.1-0.4,2.8-1.3c0.7-0.9,1.1-1.9,1.1-3.2
	V134.7z M448.7,143c0,1.7,0.4,3.1,1.1,4c0.7,0.9,1.7,1.4,2.9,1.4c1.1,0,2.1-0.5,2.8-1.4c0.8-1,1.1-2.3,1.1-4c0-1.7-0.4-3-1.1-4
	c-0.8-1-1.7-1.4-2.9-1.4c-1.2,0-2.1,0.5-2.9,1.4C449.1,140,448.7,141.3,448.7,143z M444.2,143c0-2.6,0.8-4.7,2.3-6.2
	c1.5-1.6,3.6-2.3,6.3-2.3c2.7,0,4.7,0.8,6.3,2.3c1.5,1.6,2.3,3.6,2.3,6.2s-0.8,4.7-2.3,6.2c-1.5,1.6-3.6,2.3-6.3,2.3
	c-2.7,0-4.8-0.8-6.3-2.3C444.9,147.7,444.2,145.6,444.2,143z M425.6,134.7h4.8l3.1,9.2l0.9,3.2l0.2,0l1-3.3l3-9h4.4l-7,18.6
	c-0.6,1.6-1.2,2.8-1.9,3.4c-1.1,1.1-2.7,1.7-4.9,1.7c-0.4,0-0.9,0-1.3-0.1c-0.4-0.1-0.8-0.2-1.2-0.3l0.3-3.2
	c0.6,0.2,1.1,0.4,1.7,0.4c0.8,0,1.4-0.1,1.9-0.4c0.5-0.3,0.8-0.8,1.1-1.4l0.4-1L425.6,134.7z M403.7,134.7h4v3.6
	c0.3-1.2,0.8-2.1,1.6-2.8c0.8-0.7,1.8-1,2.9-1c0.2,0,0.4,0,0.7,0.1c0.3,0,0.5,0.1,0.7,0.1l-0.2,3.2l-1.4-0.1c-1,0-1.8,0.3-2.5,1
	c-1,1-1.5,2.5-1.5,4.7v8h-4.3V134.7z M388,143c0,1.7,0.4,3.1,1.1,4c0.7,0.9,1.7,1.4,2.9,1.4c1.1,0,2.1-0.5,2.8-1.4
	c0.8-1,1.1-2.3,1.1-4c0-1.7-0.4-3-1.1-4c-0.8-1-1.7-1.4-2.9-1.4c-1.2,0-2.1,0.5-2.9,1.4C388.3,140,388,141.3,388,143z M383.4,143
	c0-2.6,0.8-4.7,2.3-6.2c1.5-1.6,3.6-2.3,6.3-2.3c2.7,0,4.7,0.8,6.3,2.3c1.5,1.6,2.3,3.6,2.3,6.2s-0.8,4.7-2.3,6.2
	c-1.5,1.6-3.6,2.3-6.3,2.3c-2.7,0-4.8-0.8-6.3-2.3C384.2,147.7,383.4,145.6,383.4,143z M370,134.7h3.2v-1.2c0-1.8,0.2-3.2,0.6-4
	c0.8-1.6,2.4-2.5,4.8-2.5c1,0,2.1,0.1,3.1,0.4l-0.1,3c-0.3-0.1-0.7-0.1-1-0.2c-0.3,0-0.5,0-0.7,0c-1,0-1.7,0.3-2,0.9
	c-0.2,0.5-0.4,1.3-0.4,2.6v1h3.9v3.2h-3.9v13.4h-4.3v-13.4H370V134.7z M342.6,127.3h4.3v14.3h0.2l5.2-6.9h5l-6.1,7.5l6.6,9.1h-5.3
	l-5.4-8.4H347v8.4h-4.3V127.3z M330,134.7h4v3.6c0.3-1.2,0.8-2.1,1.6-2.8c0.8-0.7,1.8-1,2.9-1c0.2,0,0.4,0,0.7,0.1
	c0.3,0,0.5,0.1,0.7,0.1l-0.2,3.2l-1.4-0.1c-1,0-1.8,0.3-2.5,1c-1,1-1.5,2.5-1.5,4.7v8H330V134.7z M314.2,143c0,1.7,0.4,3.1,1.1,4
	c0.7,0.9,1.7,1.4,2.9,1.4c1.1,0,2.1-0.5,2.8-1.4c0.8-1,1.1-2.3,1.1-4c0-1.7-0.4-3-1.1-4c-0.8-1-1.7-1.4-2.9-1.4
	c-1.2,0-2.1,0.5-2.9,1.4C314.6,140,314.2,141.3,314.2,143z M309.7,143c0-2.6,0.8-4.7,2.3-6.2c1.5-1.6,3.6-2.3,6.3-2.3
	c2.7,0,4.7,0.8,6.3,2.3c1.5,1.6,2.3,3.6,2.3,6.2s-0.8,4.7-2.3,6.2c-1.5,1.6-3.6,2.3-6.3,2.3c-2.7,0-4.8-0.8-6.3-2.3
	C310.4,147.7,309.7,145.6,309.7,143z M279.9,134.7h4.6l2.7,9.2l0.8,3.4l0.8-3.5l2.7-9.1h5.1l2.8,9.2l0.8,3.4l0.9-3.5l2.6-9.2h4.4
	l-5.4,16.6h-5.1l-3-10.3l-0.6-2.8l-0.7,2.7l-2.9,10.4h-5.1L279.9,134.7z M259.3,137.9H256v-3.2h3.3v-3.3l4.3-1.4v4.7h3.8v3.2h-3.8
	v7.5c0,1,0.1,1.7,0.3,2.1c0.3,0.6,0.9,0.8,1.9,0.8c0.4,0,0.7,0,0.9-0.1c0.2,0,0.5-0.1,0.8-0.2v3.1c-0.5,0.1-1,0.2-1.6,0.3
	c-0.6,0.1-1.2,0.1-1.7,0.1c-1.9,0-3.3-0.7-4.1-2c-0.5-0.8-0.7-1.9-0.7-3.2V137.9z M243.3,141.4h6.8c0-1.2-0.3-2.2-1-2.9
	c-0.7-0.7-1.5-1-2.4-1c-1,0-1.8,0.4-2.5,1.2C243.6,139.4,243.3,140.3,243.3,141.4z M254.6,144.4h-11.3c0,1.2,0.4,2.2,1.3,3
	c0.9,0.8,2.1,1.1,3.6,1.1c1.7,0,3.4-0.4,5.2-1.2v3.3c-0.9,0.3-1.8,0.6-2.8,0.8c-1,0.2-2,0.3-2.9,0.3c-2.5,0-4.5-0.6-6.1-1.9
	c-1.9-1.5-2.8-3.7-2.8-6.6c0-2.5,0.8-4.5,2.3-6.1c1.5-1.6,3.5-2.4,5.9-2.4c2.2,0,3.9,0.6,5.2,1.9c1.6,1.5,2.4,3.9,2.4,7V144.4z
	 M224.5,151.4h-4.3v-16.6h4.2v2.6c0.8-1.1,1.7-1.9,2.9-2.4c0.8-0.3,1.6-0.5,2.4-0.5c1.7,0,3,0.4,4.1,1.3c1.2,0.9,1.8,2.3,1.8,4v11.6
	h-4.3v-10c0-1-0.2-1.7-0.7-2.3c-0.5-0.6-1.2-1-2.1-1c-1.2,0-2.1,0.4-2.8,1.3c-0.7,0.9-1.1,1.9-1.1,3V151.4z M194.5,141.4h6.8
	c0-1.2-0.3-2.2-1-2.9c-0.7-0.7-1.5-1-2.4-1c-1,0-1.8,0.4-2.5,1.2C194.8,139.4,194.5,140.3,194.5,141.4z M205.8,144.4h-11.3
	c0,1.2,0.4,2.2,1.3,3c0.9,0.8,2.1,1.1,3.6,1.1c1.7,0,3.4-0.4,5.2-1.2v3.3c-0.9,0.3-1.8,0.6-2.8,0.8c-1,0.2-2,0.3-2.9,0.3
	c-2.5,0-4.5-0.6-6.1-1.9c-1.9-1.5-2.8-3.7-2.8-6.6c0-2.5,0.8-4.5,2.3-6.1c1.5-1.6,3.5-2.4,5.9-2.4c2.2,0,3.9,0.6,5.2,1.9
	c1.6,1.5,2.4,3.9,2.4,7V144.4z M171.4,151.4v-24.1h4.3v7.5l-0.2,2.6c0.8-1.1,1.7-1.8,2.9-2.3c0.8-0.3,1.6-0.5,2.4-0.5
	c1.8,0,3.3,0.5,4.3,1.5c1,1,1.5,2.5,1.5,4.3v11h-4.3v-9.6c0-1.1-0.1-1.9-0.4-2.5c-0.4-0.9-1.2-1.3-2.4-1.3c-1,0-1.8,0.4-2.5,1.1
	c-0.9,0.9-1.4,2.2-1.4,4v8.3H171.4z M160.2,137.9H157v-3.2h3.3v-3.3l4.3-1.4v4.7h3.8v3.2h-3.8v7.5c0,1,0.1,1.7,0.3,2.1
	c0.3,0.6,0.9,0.8,1.9,0.8c0.4,0,0.7,0,0.9-0.1c0.2,0,0.5-0.1,0.8-0.2v3.1c-0.5,0.1-1,0.2-1.6,0.3c-0.6,0.1-1.2,0.1-1.7,0.1
	c-1.9,0-3.3-0.7-4.1-2c-0.5-0.8-0.7-1.9-0.7-3.2V137.9z M133.1,141.4h6.8c0-1.2-0.3-2.2-1-2.9c-0.7-0.7-1.5-1-2.4-1
	c-1,0-1.8,0.4-2.5,1.2C133.4,139.4,133.1,140.3,133.1,141.4z M144.3,144.4h-11.3c0,1.2,0.4,2.2,1.3,3c0.9,0.8,2.1,1.1,3.6,1.1
	c1.7,0,3.4-0.4,5.2-1.2v3.3c-0.9,0.3-1.8,0.6-2.8,0.8c-1,0.2-2,0.3-2.9,0.3c-2.5,0-4.5-0.6-6.1-1.9c-1.9-1.5-2.8-3.7-2.8-6.6
	c0-2.5,0.8-4.5,2.3-6.1c1.5-1.6,3.5-2.4,5.9-2.4c2.2,0,3.9,0.6,5.2,1.9c1.6,1.5,2.4,3.9,2.4,7V144.4z M111.8,127.3h4.3v14.3h0.2
	l5.2-6.9h5l-6.1,7.5l6.6,9.1h-5.3l-5.4-8.4h-0.2v8.4h-4.3V127.3z M103.3,143.8h-0.7c-1.7,0-3,0.1-3.7,0.3c-1.4,0.4-2.2,1.2-2.2,2.4
	c0,0.6,0.2,1.1,0.5,1.5c0.4,0.4,1.1,0.7,2.1,0.7c1.1,0,2.1-0.3,2.7-1c0.8-0.8,1.2-1.9,1.2-3.5V143.8z M94.3,139v-3.4
	c1-0.4,2-0.7,3-0.8c0.9-0.2,2-0.2,3.1-0.2c3,0,5.1,0.8,6.3,2.4c0.7,1,1,2.3,1,4v10.5h-4.2v-2.4c-0.6,1.1-1.5,1.8-2.7,2.3
	c-0.8,0.3-1.6,0.4-2.6,0.4c-2,0-3.6-0.6-4.6-1.7c-0.9-0.9-1.3-2-1.3-3.4c0-1.6,0.5-2.8,1.6-3.7c1.4-1.1,3.6-1.7,6.6-1.7h1.2h1.2h0.4
	l0-0.7c0-1-0.4-1.7-1.1-2.1c-0.7-0.5-1.6-0.7-2.6-0.7c-0.9,0-1.7,0.1-2.6,0.3C96.2,138.1,95.3,138.4,94.3,139z M68.8,151.4h-4.3
	v-16.6h4.1v2.8c0.5-1,1.2-1.7,2.1-2.3c0.9-0.5,1.9-0.8,3.1-0.8c0.9,0,1.7,0.1,2.3,0.4c1.1,0.5,1.9,1.4,2.2,2.7
	c0.6-1,1.3-1.7,2.3-2.3c1-0.5,2-0.8,3.2-0.8c2.2,0,3.7,0.8,4.5,2.3c0.5,0.9,0.8,2.1,0.8,3.5v11.1h-4.3V142c0-1.2-0.1-2-0.3-2.5
	c-0.3-1-1.1-1.5-2.2-1.5c-1,0-1.8,0.4-2.4,1.1c-0.6,0.7-1,1.8-1,3v9.2h-4.3V142c0-1.2-0.1-2.1-0.3-2.6c-0.4-0.9-1.1-1.3-2.1-1.3
	c-1,0-1.7,0.3-2.4,1c-0.7,0.8-1.1,1.8-1.1,3.1V151.4z M38.8,141.4h6.8c0-1.2-0.3-2.2-1-2.9c-0.7-0.7-1.5-1-2.4-1
	c-1,0-1.8,0.4-2.5,1.2C39.1,139.4,38.8,140.3,38.8,141.4z M50.1,144.4H38.8c0,1.2,0.4,2.2,1.3,3c0.9,0.8,2.1,1.1,3.6,1.1
	c1.7,0,3.4-0.4,5.2-1.2v3.3c-0.9,0.3-1.8,0.6-2.8,0.8c-1,0.2-2,0.3-2.9,0.3c-2.5,0-4.5-0.6-6.1-1.9c-1.9-1.5-2.8-3.7-2.8-6.6
	c0-2.5,0.8-4.5,2.3-6.1c1.5-1.6,3.5-2.4,5.9-2.4c2.2,0,3.9,0.6,5.2,1.9c1.6,1.5,2.4,3.9,2.4,7V144.4z M28,128.9h4.6l-6,22.5h-5.7
	l-3.4-14.6l-0.8-4.3l-0.8,4.3l-3.3,14.6H6.7l-6.2-22.5h4.8l3.3,13.4l1,5.1l1-5.1l3-13.4h6.1l3.2,13.4l0.9,5.1l1-5.1L28,128.9z"/>
<path class="st1" d="M488.7,135.4v-4.9h1.5l0.9,3.4l0.9-3.4h1.5v4.9h-0.9v-3.9l-1,3.9h-1l-1-3.9v3.9H488.7z M485.6,135.4v-4.1h-1.5
	v-0.8h3.9v0.8h-1.5v4.1H485.6z"/>
<g>
	<path class="st2" d="M141.3,80.7h21.6c0-3.9-1-6.9-3.1-9.1c-2.1-2.1-4.6-3.2-7.7-3.2c-2.1,0-4,0.6-5.6,1.7
		c-1.6,1.2-2.9,2.7-3.7,4.6C141.8,76.6,141.3,78.6,141.3,80.7 M177.1,90.1h-35.8c0.2,3.9,1.7,7,4.5,9.4c2.7,2.4,6.5,3.6,11.1,3.6
		c5.5,0,10.9-1.2,16.4-3.6v10.4c-5.8,2.2-11.8,3.3-18.1,3.3c-3.7,0-7.2-0.5-10.5-1.5c-3.3-1-6.3-2.6-9-4.7c-2.7-2.2-4.8-5-6.4-8.5
		c-1.6-3.5-2.3-7.6-2.3-12.4c0-5.1,1.1-9.7,3.2-13.9c2.2-4.2,5.2-7.4,9.2-9.8c4-2.4,8.5-3.5,13.5-3.5c4.3,0,8.3,0.9,11.9,2.7
		c3.6,1.8,6.6,4.9,8.9,9.1c2.3,4.2,3.4,9.7,3.4,16.4V90.1z M103,36h13.8v76.3H103V36z M57.1,80.7h21.6c0-3.9-1-6.9-3.1-9.1
		c-2.1-2.1-4.6-3.2-7.7-3.2c-2.1,0-4,0.6-5.6,1.7c-1.6,1.2-2.9,2.7-3.7,4.6C57.5,76.6,57.1,78.6,57.1,80.7z M92.8,90.1H57.1
		c0.2,3.9,1.7,7,4.5,9.4c2.7,2.4,6.5,3.6,11.1,3.6c5.5,0,10.9-1.2,16.4-3.6v10.4c-5.8,2.2-11.8,3.3-18.1,3.3
		c-3.7,0-7.2-0.5-10.5-1.5c-3.3-1-6.3-2.6-9-4.7c-2.7-2.2-4.8-5-6.4-8.5c-1.6-3.5-2.3-7.6-2.3-12.4c0-5.1,1.1-9.7,3.2-13.9
		c2.2-4.2,5.2-7.4,9.2-9.8c4-2.4,8.5-3.5,13.5-3.5c4.3,0,8.3,0.9,11.9,2.7c3.6,1.8,6.6,4.9,8.9,9.1c2.3,4.2,3.4,9.7,3.4,16.4V90.1z
		 M10.3,69.8H0V59.6h10.3V49.1l13.8-4.4v14.9h12.2v10.2H24.1v23.9c0,2.1,0.1,3.7,0.4,5c0.3,1.3,0.9,2.3,1.9,3.1
		c1,0.8,2.5,1.2,4.5,1.2c1.9,0,3.7-0.3,5.4-0.9v9.8c-3.9,0.9-7.4,1.3-10.6,1.3c-10.2,0-15.3-5.4-15.3-16.3V69.8z"/>
	<path class="st3" d="M428.4,69.8h-10.3V59.6h10.3V49.1l13.8-4.4v14.9h12.2v10.2h-12.2v23.9c0,2.1,0.1,3.7,0.4,5
		c0.3,1.3,0.9,2.3,1.9,3.1c1,0.8,2.5,1.2,4.5,1.2c1.9,0,3.7-0.3,5.4-0.9v9.8c-3.9,0.9-7.4,1.3-10.6,1.3c-10.2,0-15.3-5.4-15.3-16.3
		V69.8z M383.5,59.6h12.6V71h0.3c0.7-3.6,2.3-6.6,4.9-8.8c2.5-2.2,5.6-3.4,9.2-3.4c1.3,0,2.8,0.2,4.6,0.6l-0.5,10.1
		c-1.2-0.2-2.7-0.3-4.5-0.3c-3.1,0-6,1.3-8.7,3.8c-2.7,2.6-4.1,7.2-4.1,14v25.3h-13.8V59.6z M356.6,88.4h-2.3
		c-5.6,0-10.1,0.5-13.5,1.6c-3.4,1.1-5.1,3.4-5.1,7c0,1.9,0.7,3.6,2,4.9c1.3,1.3,3.5,2,6.4,2c2.3,0,4.4-0.5,6.3-1.4
		c1.9-0.9,3.4-2.4,4.5-4.5c1.1-2.1,1.7-4.8,1.7-8.1V88.4z M327.9,73.1V62.3c5.8-2.3,12.2-3.5,19.3-3.5c6.8,0,11.9,1.1,15.3,3.4
		c3.4,2.3,5.6,4.8,6.5,7.7c0.9,2.9,1.4,5.9,1.4,9.2v33.3h-13.5v-7.8h-0.2c-1.7,3.4-4.1,5.7-7.3,6.8c-3.1,1.2-6.2,1.7-9.1,1.7
		c-4.4,0-8-0.8-10.8-2.4c-2.8-1.6-4.8-3.6-6-6c-1.2-2.4-1.8-5-1.8-7.7c0-5,2-9.2,5.9-12.5c3.9-3.3,10.6-4.9,20.2-4.9h4
		c0.9,0.1,2.1,0.1,3.7,0.1h1.2l-0.1-2.2c-0.2-3-1.3-5.3-3.5-6.8c-2.2-1.5-4.9-2.3-8.3-2.3c-2.8,0-5.5,0.3-8.2,1
		C333.9,70.2,331,71.4,327.9,73.1z M247,112.3h-13.8V59.6h13.1v9h0.3c0.9-2.1,2.2-3.8,3.7-5.3c1.6-1.4,3.4-2.5,5.6-3.3
		c2.1-0.8,4.4-1.2,6.8-1.2c2.8,0,5.6,0.6,8.4,1.9c2.8,1.2,4.8,3.9,5.9,8h0.3c2.2-4.1,5-6.8,8.2-8c3.3-1.3,6.2-1.9,9-1.9
		c6.8,0,11.3,1.9,13.5,5.8c2.2,3.9,3.3,8.1,3.3,12.6v35.1h-13.8V82.7c0-3.8-0.5-6.9-1.4-9.2c-0.9-2.3-3.1-3.4-6.4-3.4
		c-3,0-5.6,1.2-7.6,3.6c-2,2.4-3,5.6-3,9.5v29.1h-13.8V82.7c0-3.8-0.5-6.9-1.4-9.2c-0.9-2.3-3-3.5-6.2-3.5c-3,0-5.6,1.2-7.7,3.5
		c-2.1,2.3-3.2,5.5-3.2,9.7V112.3z M221.5,61l-1.2,10c-4.3-1.7-8.3-2.5-12-2.5c-3.5,0-5.9,0.6-7.2,1.7c-1.3,1.1-2,2.4-2,3.8
		c0,1.7,0.6,3,1.8,3.8c1.2,0.8,3.3,1.7,6.1,2.7c4.3,1.3,7.9,3.1,10.9,5.4c3,2.3,4.5,5.9,4.5,11c0,5.7-2.1,9.9-6.4,12.4
		c-4.3,2.6-9,3.9-14.1,3.9c-2.6,0-5.5-0.3-8.7-0.9c-3.2-0.6-6.1-1.3-8.7-2.2l0.6-10.8c5.4,2.4,10.4,3.5,14.8,3.5
		c3,0,5.2-0.6,6.6-1.7c1.4-1.1,2.1-2.5,2.1-4c0-2-0.7-3.5-2.1-4.4c-1.4-0.9-3.7-1.9-7-3.1c-3.1-1.1-5.6-2.3-7.5-3.4
		c-1.9-1.1-3.5-2.7-4.8-4.6c-1.2-1.9-1.8-4.4-1.8-7.4c0-2.6,0.6-5.1,1.9-7.5c1.3-2.4,3.3-4.3,6.2-5.8c2.9-1.5,6.5-2.3,11-2.3
		C211.2,58.8,216.8,59.6,221.5,61z"/>
	<path class="st4" d="M433.8,4.5C446.9-2,463-1.7,476.2,6.9c13.2,8.5,20.2,23.1,19.7,37.8c-1.7-12.7-9.6-25.3-22.4-33.6
		C460.7,2.8,445.9,0.8,433.8,4.5"/>
	<path class="st4" d="M432.4,17.1c10.4-5.2,23.3-4.9,33.8,1.9c10.5,6.8,16.1,18.4,15.7,30.1c-1.3-10.1-7.6-20.2-17.8-26.8
		C453.8,15.7,442.1,14.1,432.4,17.1"/>
	<path class="st4" d="M431.3,29.2c8-4,17.8-3.8,25.9,1.4c8,5.2,12.3,14.1,12,23c-1-7.7-5.8-15.4-13.6-20.5
		C447.7,28.1,438.7,26.9,431.3,29.2"/>
	<g>
		<path d="M29.4,128.2l2.1,0l-6.5,23.1l-2.7,0l-5.4-17.6l-0.7-2.6l-0.7,2.6l-4.7,17.5H8.1l-7.1-23.1l2.4,0l5.5,18.7l0.6,2.5l0.6-2.6
			l5.2-18.7l2.4,0l5.5,18.7l0.6,2.5l0.6-2.6L29.4,128.2z"/>
		<path d="M47.4,143.5H35.5c0,1.8,0.5,3.3,1.6,4.5c1.1,1.3,2.7,2,4.5,2c1.4,0,2.9-0.4,4.6-1.3v1.9c-1.6,0.7-3.1,1-4.7,1
			c-2.4,0-4.2-0.7-5.7-2.1c-1.6-1.6-2.5-3.9-2.5-7c0-2.5,0.7-4.5,2-6.1c1.3-1.6,3.1-2.4,5.4-2.4c2.8,0,4.8,1.1,5.8,3.4
			c0.6,1.3,0.9,3.1,0.9,5.2V143.5z M35.5,141.8h9.8c0-1.5-0.3-2.7-0.8-3.6c-0.8-1.5-2-2.2-3.8-2.2c-1.7,0-3,0.7-4,2
			C35.9,139,35.5,140.3,35.5,141.8z"/>
		<path d="M62.7,151.4v-13.7l-0.1-3.2h2v3.3c0.4-1,1.1-1.8,1.8-2.5c0.9-0.7,1.9-1.1,3-1.1c1.4,0,2.5,0.3,3.4,0.9
			c0.9,0.6,1.5,1.5,1.7,2.7c0.5-1.1,1.2-2,2.1-2.6c0.9-0.6,2-1,3.2-1c2.3,0,3.8,0.7,4.8,2.2c0.6,0.9,0.9,2.2,0.9,3.7v11.3h-2.1
			v-11.2c0-1.1-0.2-1.9-0.5-2.6c-0.6-1.1-1.6-1.7-3.1-1.7c-1.4,0-2.6,0.5-3.5,1.6c-0.9,1.1-1.3,2.4-1.3,4v9.9h-2.1v-11.2
			c0-1.1-0.2-2-0.5-2.6c-0.6-1.1-1.6-1.6-3-1.6c-1.4,0-2.6,0.6-3.4,1.7c-0.9,1.1-1.3,2.4-1.3,3.9v9.9H62.7z"/>
		<path d="M91.3,137.2v-2c0.7-0.3,1.5-0.6,2.3-0.8c0.9-0.2,1.8-0.3,2.7-0.3c2.5,0,4.2,0.8,5.1,2.4c0.5,0.9,0.8,2.2,0.8,3.9v7.2
			l0.1,3.7h-1.8v-2.9c-0.7,1.2-1.6,2.1-2.8,2.6c-0.9,0.4-1.8,0.6-2.8,0.6c-1.8,0-3.2-0.5-4.2-1.5c-0.9-0.9-1.3-2-1.3-3.3
			c0-1.8,0.6-3.2,1.9-4.1c1.5-1.1,4.1-1.7,7.8-1.7h1.1v-0.6c0-1.3-0.2-2.2-0.6-2.9c-0.6-1.1-1.7-1.7-3.3-1.7
			C94.6,135.9,92.9,136.4,91.3,137.2z M100.3,142.8h-1.9c-2,0-3.6,0.3-4.7,0.8c-1.4,0.6-2,1.7-2,3.2c0,0.9,0.3,1.7,1,2.3
			c0.7,0.6,1.4,0.9,2.3,0.9c1.7,0,3-0.5,3.9-1.6c0.9-1.1,1.4-2.5,1.4-4.3V142.8z"/>
		<path d="M107.5,126.2h2.1v15.7l0.2,0l7.7-7.5l2.7,0l-8.4,7.8l9.2,9.1l-2.9,0l-8.3-8.3l-0.2,0v8.3h-2.1V126.2z"/>
		<path d="M136.9,143.5H125c0,1.8,0.5,3.3,1.6,4.5c1.1,1.3,2.7,2,4.5,2c1.4,0,2.9-0.4,4.6-1.3v1.9c-1.6,0.7-3.1,1-4.7,1
			c-2.4,0-4.2-0.7-5.7-2.1c-1.6-1.6-2.5-3.9-2.5-7c0-2.5,0.7-4.5,2-6.1c1.3-1.6,3.1-2.4,5.4-2.4c2.8,0,4.8,1.1,5.8,3.4
			c0.6,1.3,0.9,3.1,0.9,5.2V143.5z M125,141.8h9.8c0-1.5-0.3-2.7-0.8-3.6c-0.8-1.5-2-2.2-3.8-2.2c-1.7,0-3,0.7-4,2
			C125.4,139,125,140.3,125,141.8z"/>
		<path d="M153.6,130.2l2.1-0.8v5h4v1.7h-4v10.4c0,1.4,0.2,2.3,0.5,2.8c0.3,0.4,0.8,0.5,1.5,0.5c0.4,0,0.8,0,1.1-0.1
			c0.3,0,0.6-0.2,1-0.3v1.8c-0.4,0.1-0.8,0.2-1.2,0.3c-0.4,0.1-0.8,0.1-1.2,0.1c-1.6,0-2.8-0.6-3.4-1.9c-0.3-0.7-0.5-1.7-0.5-3
			v-10.5h-3.5v-1.7h3.5V130.2z"/>
		<path d="M163.7,126.2h2.1v8.1l-0.2,3.7c0.5-1.2,1.2-2.1,2.2-2.8c1-0.7,2.1-1,3.3-1c2.4,0,4.1,0.8,5,2.5c0.6,1,0.9,2.4,0.9,4.1
			v10.5h-2.1v-10.4c0-1.5-0.1-2.5-0.4-3.1c-0.6-1.3-1.8-1.9-3.7-1.9c-1.4,0-2.6,0.6-3.6,1.7c-0.9,1.1-1.4,2.4-1.4,3.9v9.9h-2.1
			V126.2z"/>
		<path d="M194.9,143.5h-11.9c0,1.8,0.5,3.3,1.6,4.5c1.1,1.3,2.7,2,4.5,2c1.4,0,2.9-0.4,4.6-1.3v1.9c-1.6,0.7-3.1,1-4.7,1
			c-2.4,0-4.2-0.7-5.7-2.1c-1.6-1.6-2.5-3.9-2.5-7c0-2.5,0.7-4.5,2-6.1c1.3-1.6,3.1-2.4,5.4-2.4c2.8,0,4.8,1.1,5.8,3.4
			c0.6,1.3,0.9,3.1,0.9,5.2V143.5z M182.9,141.8h9.8c0-1.5-0.3-2.7-0.8-3.6c-0.8-1.5-2-2.2-3.8-2.2c-1.7,0-3,0.7-4,2
			C183.3,139,182.9,140.3,182.9,141.8z"/>
		<path d="M212.2,151.4h-2.1v-13l-0.1-3.9h1.8v3.5c0.5-1.1,1.1-1.9,1.9-2.5c1-0.8,2.2-1.2,3.7-1.2c2.5,0,4.2,0.8,5.1,2.5
			c0.5,1,0.8,2.4,0.8,4.1v10.5h-2.1v-10.4c0-1.5-0.1-2.6-0.4-3.2c-0.6-1.2-1.8-1.8-3.7-1.8c-1.5,0-2.7,0.6-3.6,1.7
			c-0.9,1.1-1.4,2.4-1.4,3.9V151.4z"/>
		<path d="M241.3,143.5h-11.9c0,1.8,0.5,3.3,1.6,4.5c1.1,1.3,2.7,2,4.5,2c1.4,0,2.9-0.4,4.6-1.3v1.9c-1.6,0.7-3.1,1-4.7,1
			c-2.4,0-4.2-0.7-5.7-2.1c-1.6-1.6-2.5-3.9-2.5-7c0-2.5,0.7-4.5,2-6.1c1.3-1.6,3.1-2.4,5.4-2.4c2.8,0,4.8,1.1,5.8,3.4
			c0.6,1.3,0.9,3.1,0.9,5.2V143.5z M229.4,141.8h9.8c0-1.5-0.3-2.7-0.8-3.6c-0.8-1.5-2-2.2-3.8-2.2c-1.7,0-3,0.7-4,2
			C229.8,139,229.4,140.3,229.4,141.8z"/>
		<path d="M246.6,130.2l2.1-0.8v5h4v1.7h-4v10.4c0,1.4,0.2,2.3,0.5,2.8c0.3,0.4,0.8,0.5,1.5,0.5c0.4,0,0.8,0,1.1-0.1
			c0.3,0,0.6-0.2,1-0.3v1.8c-0.4,0.1-0.8,0.2-1.2,0.3c-0.4,0.1-0.8,0.1-1.2,0.1c-1.7,0-2.8-0.6-3.4-1.9c-0.3-0.7-0.5-1.7-0.5-3
			v-10.5h-3.5v-1.7h3.5V130.2z"/>
		<path d="M266.1,134.4l2.2,0l4,12.9l0.5,2.3l0.6-2.2l3.9-12.9l2.6,0l4.2,12.9l0.6,2.3l0.7-2.3l3.7-12.9l2.1,0l-5.1,16.9l-2.6,0
			l-4.6-13.6l-0.4-1.6l-0.5,1.6l-4.1,13.6h-2.6L266.1,134.4z"/>
		<path d="M293.3,142.9c0-2.5,0.7-4.6,2-6.2c1.4-1.7,3.4-2.6,5.8-2.6c2.5,0,4.4,0.9,5.8,2.6c1.3,1.6,2,3.7,2,6.2s-0.7,4.6-2,6.1
			c-1.4,1.7-3.4,2.6-5.8,2.6s-4.4-0.9-5.8-2.6C293.9,147.5,293.3,145.4,293.3,142.9z M295.4,142.9c0,1.7,0.4,3.2,1.2,4.5
			c1,1.6,2.5,2.4,4.4,2.4c1.9,0,3.4-0.8,4.4-2.4c0.8-1.3,1.3-2.8,1.3-4.6c0-1.7-0.4-3.3-1.2-4.6c-1-1.6-2.5-2.4-4.4-2.4
			s-3.4,0.8-4.4,2.4C295.9,139.7,295.4,141.2,295.4,142.9z"/>
		<path d="M315,151.4H313v-13.8l-0.1-3.1h2v3.6c0.3-1.1,0.7-2,1.4-2.7c0.8-0.8,1.7-1.3,2.8-1.3c0.5,0,1.1,0.1,1.8,0.4v2
			c-0.2-0.1-0.5-0.2-0.8-0.3c-0.3-0.1-0.6-0.1-0.9-0.1c-1.2,0-2.2,0.5-2.9,1.6c-0.8,1-1.2,2.4-1.2,4V151.4z"/>
		<path d="M324.2,126.2h2.1v15.7l0.2,0l7.7-7.5l2.7,0l-8.4,7.8l9.2,9.1l-2.9,0l-8.3-8.3l-0.2,0v8.3h-2.1V126.2z"/>
		<path d="M355.4,151.4v-15.2h-3.5v-1.7h3.5V131c0-1.8,0.5-3.1,1.6-3.9c0.7-0.6,1.5-0.9,2.4-0.9c0.9,0,1.7,0.1,2.4,0.3v1.7
			c-0.3-0.1-0.7-0.2-1.1-0.2c-0.4,0-0.7,0-1,0c-0.9,0-1.5,0.4-1.8,1.1c-0.2,0.5-0.3,1.1-0.3,1.8v3.6h4v1.7h-4v15.2H355.4z"/>
		<path d="M365.4,142.9c0-2.5,0.7-4.6,2-6.2c1.4-1.7,3.4-2.6,5.8-2.6c2.5,0,4.4,0.9,5.8,2.6c1.3,1.6,2,3.7,2,6.2s-0.7,4.6-2,6.1
			c-1.4,1.7-3.4,2.6-5.8,2.6s-4.4-0.9-5.8-2.6C366.1,147.5,365.4,145.4,365.4,142.9z M367.6,142.9c0,1.7,0.4,3.2,1.2,4.5
			c1,1.6,2.5,2.4,4.4,2.4c1.9,0,3.4-0.8,4.4-2.4c0.8-1.3,1.3-2.8,1.3-4.6c0-1.7-0.4-3.3-1.2-4.6c-1-1.6-2.5-2.4-4.4-2.4
			s-3.4,0.8-4.4,2.4C368,139.7,367.6,141.2,367.6,142.9z"/>
		<path d="M387.2,151.4h-2.1v-13.8l-0.1-3.1h2v3.6c0.3-1.1,0.7-2,1.4-2.7c0.8-0.8,1.7-1.3,2.8-1.3c0.5,0,1.1,0.1,1.8,0.4v2
			c-0.2-0.1-0.5-0.2-0.8-0.3c-0.3-0.1-0.6-0.1-0.9-0.1c-1.2,0-2.2,0.5-2.9,1.6c-0.8,1-1.2,2.4-1.2,4V151.4z"/>
		<path d="M407.1,158.3l0.2-1.8c0.5,0.2,1.1,0.2,1.7,0.2s1.2-0.2,1.6-0.7c0.3-0.4,0.6-1,0.9-1.9l0.7-2.2l-6.1-17.5l2.2,0l4.4,12.9
			l0.6,1.7l0.6-1.6l4.3-12.9l2.1,0l-7.2,20.8c-0.4,1.1-0.9,2-1.5,2.6c-0.6,0.6-1.3,0.8-2.3,0.8c-0.4,0-0.9,0-1.3-0.1
			S407.3,158.4,407.1,158.3z"/>
		<path d="M422.6,142.9c0-2.5,0.7-4.6,2-6.2c1.4-1.7,3.4-2.6,5.8-2.6c2.5,0,4.4,0.9,5.8,2.6c1.3,1.6,2,3.7,2,6.2s-0.7,4.6-2,6.1
			c-1.4,1.7-3.4,2.6-5.8,2.6s-4.4-0.9-5.8-2.6C423.2,147.5,422.6,145.4,422.6,142.9z M424.8,142.9c0,1.7,0.4,3.2,1.2,4.5
			c1,1.6,2.5,2.4,4.4,2.4c1.9,0,3.4-0.8,4.4-2.4c0.8-1.3,1.3-2.8,1.3-4.6c0-1.7-0.4-3.3-1.2-4.6c-1-1.6-2.5-2.4-4.4-2.4
			s-3.4,0.8-4.4,2.4C425.2,139.7,424.8,141.2,424.8,142.9z"/>
		<path d="M442.1,134.4h2.1v11.1c0,1.1,0.2,1.9,0.5,2.6c0.6,1.2,1.7,1.7,3.2,1.7c1.5,0,2.8-0.6,3.7-1.7c1-1.1,1.4-2.4,1.4-4v-9.8
			h2.1v13.1l0.1,3.9h-1.9V148c-0.5,1.2-1.2,2.1-2.1,2.7s-2.1,0.9-3.3,0.9c-1.5,0-2.7-0.3-3.6-1c-1.5-1-2.2-2.8-2.2-5.3V134.4z"/>
	</g>
	<g>
		<path d="M457.8,127.9h5.8v0.7h-2.5v7.7h-0.8v-7.7h-2.5V127.9z"/>
		<path d="M469.3,135.6L469.3,135.6l0.4-1.1l2.8-6.5l1.3,0v8.4H473v-6.5v-1.1h0l-0.4,1.1l-2.8,6.5h-0.8l-2.8-6.5l-0.4-1.1h0l0,1.1
			v6.5h-0.8v-8.4h1.2l2.8,6.5L469.3,135.6z"/>
	</g>
</g>
<g>
</g>
<g>
</g>
<g>
</g>
<g>
</g>
<g>
</g>
<g>
</g>
</svg>
